<svg width="209" height="63" viewBox="0 0 209 63" fill="none" xmlns="http://www.w3.org/2000/svg">
<rect x="25" width="184" height="32" rx="16" fill="#C9FF50"/>
<path d="M44.386 22V12.2H53.052V22H51.26V13.292L51.68 13.74H45.758L46.178 13.292V22H44.386ZM59.0914 22.098C58.326 22.098 57.6447 21.9347 57.0474 21.608C56.45 21.272 55.9787 20.8147 55.6334 20.236C55.288 19.6573 55.1154 18.9993 55.1154 18.262C55.1154 17.5153 55.288 16.8573 55.6334 16.288C55.9787 15.7093 56.45 15.2567 57.0474 14.93C57.6447 14.6033 58.326 14.44 59.0914 14.44C59.866 14.44 60.552 14.6033 61.1494 14.93C61.756 15.2567 62.2274 15.7047 62.5634 16.274C62.9087 16.8433 63.0814 17.506 63.0814 18.262C63.0814 18.9993 62.9087 19.6573 62.5634 20.236C62.2274 20.8147 61.756 21.272 61.1494 21.608C60.552 21.9347 59.866 22.098 59.0914 22.098ZM59.0914 20.6C59.5207 20.6 59.9034 20.5067 60.2394 20.32C60.5754 20.1333 60.8367 19.8627 61.0234 19.508C61.2194 19.1533 61.3174 18.738 61.3174 18.262C61.3174 17.7767 61.2194 17.3613 61.0234 17.016C60.8367 16.6613 60.5754 16.3907 60.2394 16.204C59.9034 16.0173 59.5254 15.924 59.1054 15.924C58.676 15.924 58.2934 16.0173 57.9574 16.204C57.6307 16.3907 57.3694 16.6613 57.1734 17.016C56.9774 17.3613 56.8794 17.7767 56.8794 18.262C56.8794 18.738 56.9774 19.1533 57.1734 19.508C57.3694 19.8627 57.6307 20.1333 57.9574 20.32C58.2934 20.5067 58.6714 20.6 59.0914 20.6ZM63.7761 21.986L63.8601 20.516C63.9254 20.5253 63.9861 20.5347 64.0421 20.544C64.0981 20.5533 64.1494 20.558 64.1961 20.558C64.4854 20.558 64.7094 20.4693 64.8681 20.292C65.0268 20.1147 65.1434 19.8767 65.2181 19.578C65.3021 19.27 65.3581 18.9293 65.3861 18.556C65.4234 18.1733 65.4514 17.7907 65.4701 17.408L65.5961 14.524H71.6441V22H69.8941V15.532L70.3001 16.008H66.7441L67.1221 15.518L67.0241 17.492C66.9961 18.1547 66.9401 18.7707 66.8561 19.34C66.7814 19.9 66.6601 20.39 66.4921 20.81C66.3334 21.23 66.1094 21.5567 65.8201 21.79C65.5401 22.0233 65.1808 22.14 64.7421 22.14C64.6021 22.14 64.4481 22.126 64.2801 22.098C64.1214 22.07 63.9534 22.0327 63.7761 21.986ZM74.1409 22V14.524H75.8909V19.452L80.0209 14.524H81.6169V22H79.8669V17.072L75.7509 22H74.1409ZM84.111 22V14.524H85.861V17.562H89.627V14.524H91.377V22H89.627V19.046H85.861V22H84.111ZM98.3983 22V20.488L98.3003 20.166V17.52C98.3003 17.0067 98.1463 16.61 97.8383 16.33C97.5303 16.0407 97.0637 15.896 96.4383 15.896C96.0183 15.896 95.603 15.9613 95.1923 16.092C94.791 16.2227 94.4503 16.4047 94.1703 16.638L93.4843 15.364C93.8857 15.056 94.3617 14.8273 94.9123 14.678C95.4723 14.5193 96.051 14.44 96.6483 14.44C97.731 14.44 98.5663 14.7013 99.1543 15.224C99.7517 15.7373 100.05 16.5353 100.05 17.618V22H98.3983ZM96.0463 22.098C95.4863 22.098 94.9963 22.0047 94.5763 21.818C94.1563 21.622 93.8297 21.356 93.5963 21.02C93.3723 20.6747 93.2603 20.2873 93.2603 19.858C93.2603 19.438 93.3583 19.06 93.5543 18.724C93.7597 18.388 94.091 18.122 94.5483 17.926C95.0057 17.73 95.6123 17.632 96.3683 17.632H98.5383V18.794H96.4943C95.897 18.794 95.4957 18.892 95.2903 19.088C95.085 19.2747 94.9823 19.508 94.9823 19.788C94.9823 20.1053 95.1083 20.3573 95.3603 20.544C95.6123 20.7307 95.9623 20.824 96.4103 20.824C96.8397 20.824 97.2223 20.726 97.5583 20.53C97.9037 20.334 98.151 20.0447 98.3003 19.662L98.5943 20.712C98.4263 21.1507 98.123 21.4913 97.6843 21.734C97.255 21.9767 96.709 22.098 96.0463 22.098ZM113.043 22L109.725 17.226L111.195 16.316L115.101 22H113.043ZM106.561 22V12.2H108.353V22H106.561ZM107.807 17.87V16.302H111.111V17.87H107.807ZM111.363 17.31L109.697 17.086L113.043 12.2H114.975L111.363 17.31ZM119.517 22.098C118.751 22.098 118.07 21.9347 117.473 21.608C116.875 21.272 116.404 20.8147 116.059 20.236C115.713 19.6573 115.541 18.9993 115.541 18.262C115.541 17.5153 115.713 16.8573 116.059 16.288C116.404 15.7093 116.875 15.2567 117.473 14.93C118.07 14.6033 118.751 14.44 119.517 14.44C120.291 14.44 120.977 14.6033 121.575 14.93C122.181 15.2567 122.653 15.7047 122.989 16.274C123.334 16.8433 123.507 17.506 123.507 18.262C123.507 18.9993 123.334 19.6573 122.989 20.236C122.653 20.8147 122.181 21.272 121.575 21.608C120.977 21.9347 120.291 22.098 119.517 22.098ZM119.517 20.6C119.946 20.6 120.329 20.5067 120.665 20.32C121.001 20.1333 121.262 19.8627 121.449 19.508C121.645 19.1533 121.743 18.738 121.743 18.262C121.743 17.7767 121.645 17.3613 121.449 17.016C121.262 16.6613 121.001 16.3907 120.665 16.204C120.329 16.0173 119.951 15.924 119.531 15.924C119.101 15.924 118.719 16.0173 118.383 16.204C118.056 16.3907 117.795 16.6613 117.599 17.016C117.403 17.3613 117.305 17.7767 117.305 18.262C117.305 18.738 117.403 19.1533 117.599 19.508C117.795 19.8627 118.056 20.1333 118.383 20.32C118.719 20.5067 119.097 20.6 119.517 20.6ZM125.375 22V14.524H129.029C129.935 14.524 130.644 14.692 131.157 15.028C131.68 15.364 131.941 15.84 131.941 16.456C131.941 17.0627 131.699 17.5387 131.213 17.884C130.728 18.22 130.084 18.388 129.281 18.388L129.491 17.954C130.397 17.954 131.069 18.122 131.507 18.458C131.955 18.7847 132.179 19.2653 132.179 19.9C132.179 20.5627 131.932 21.0807 131.437 21.454C130.943 21.818 130.191 22 129.183 22H125.375ZM127.041 20.726H129.043C129.519 20.726 129.879 20.6513 130.121 20.502C130.364 20.3433 130.485 20.1053 130.485 19.788C130.485 19.452 130.373 19.2047 130.149 19.046C129.925 18.8873 129.575 18.808 129.099 18.808H127.041V20.726ZM127.041 17.646H128.875C129.323 17.646 129.659 17.5667 129.883 17.408C130.117 17.24 130.233 17.0067 130.233 16.708C130.233 16.4 130.117 16.1713 129.883 16.022C129.659 15.8727 129.323 15.798 128.875 15.798H127.041V17.646ZM138.719 22V20.488L138.621 20.166V17.52C138.621 17.0067 138.467 16.61 138.159 16.33C137.851 16.0407 137.385 15.896 136.759 15.896C136.339 15.896 135.924 15.9613 135.513 16.092C135.112 16.2227 134.771 16.4047 134.491 16.638L133.805 15.364C134.207 15.056 134.683 14.8273 135.233 14.678C135.793 14.5193 136.372 14.44 136.969 14.44C138.052 14.44 138.887 14.7013 139.475 15.224C140.073 15.7373 140.371 16.5353 140.371 17.618V22H138.719ZM136.367 22.098C135.807 22.098 135.317 22.0047 134.897 21.818C134.477 21.622 134.151 21.356 133.917 21.02C133.693 20.6747 133.581 20.2873 133.581 19.858C133.581 19.438 133.679 19.06 133.875 18.724C134.081 18.388 134.412 18.122 134.869 17.926C135.327 17.73 135.933 17.632 136.689 17.632H138.859V18.794H136.815C136.218 18.794 135.817 18.892 135.611 19.088C135.406 19.2747 135.303 19.508 135.303 19.788C135.303 20.1053 135.429 20.3573 135.681 20.544C135.933 20.7307 136.283 20.824 136.731 20.824C137.161 20.824 137.543 20.726 137.879 20.53C138.225 20.334 138.472 20.0447 138.621 19.662L138.915 20.712C138.747 21.1507 138.444 21.4913 138.005 21.734C137.576 21.9767 137.03 22.098 136.367 22.098ZM141.585 21.986L141.669 20.516C141.734 20.5253 141.795 20.5347 141.851 20.544C141.907 20.5533 141.958 20.558 142.005 20.558C142.294 20.558 142.518 20.4693 142.677 20.292C142.836 20.1147 142.952 19.8767 143.027 19.578C143.111 19.27 143.167 18.9293 143.195 18.556C143.232 18.1733 143.26 17.7907 143.279 17.408L143.405 14.524H149.453V22H147.703V15.532L148.109 16.008H144.553L144.931 15.518L144.833 17.492C144.805 18.1547 144.749 18.7707 144.665 19.34C144.59 19.9 144.469 20.39 144.301 20.81C144.142 21.23 143.918 21.5567 143.629 21.79C143.349 22.0233 142.99 22.14 142.551 22.14C142.411 22.14 142.257 22.126 142.089 22.098C141.93 22.07 141.762 22.0327 141.585 21.986ZM155.436 22.098C154.605 22.098 153.877 21.9347 153.252 21.608C152.636 21.272 152.155 20.8147 151.81 20.236C151.474 19.6573 151.306 18.9993 151.306 18.262C151.306 17.5153 151.469 16.8573 151.796 16.288C152.132 15.7093 152.589 15.2567 153.168 14.93C153.756 14.6033 154.423 14.44 155.17 14.44C155.898 14.44 156.546 14.5987 157.116 14.916C157.685 15.2333 158.133 15.6813 158.46 16.26C158.786 16.8387 158.95 17.52 158.95 18.304C158.95 18.3787 158.945 18.4627 158.936 18.556C158.936 18.6493 158.931 18.738 158.922 18.822H152.692V17.66H157.998L157.312 18.024C157.321 17.5947 157.232 17.2167 157.046 16.89C156.859 16.5633 156.602 16.3067 156.276 16.12C155.958 15.9333 155.59 15.84 155.17 15.84C154.74 15.84 154.362 15.9333 154.036 16.12C153.718 16.3067 153.466 16.568 153.28 16.904C153.102 17.2307 153.014 17.618 153.014 18.066V18.346C153.014 18.794 153.116 19.1907 153.322 19.536C153.527 19.8813 153.816 20.1473 154.19 20.334C154.563 20.5207 154.992 20.614 155.478 20.614C155.898 20.614 156.276 20.5487 156.612 20.418C156.948 20.2873 157.246 20.082 157.508 19.802L158.446 20.88C158.11 21.272 157.685 21.5753 157.172 21.79C156.668 21.9953 156.089 22.098 155.436 22.098ZM161.004 22V14.524H162.754V17.562H166.52V14.524H168.27V22H166.52V19.046H162.754V22H161.004ZM176.117 22L173.415 18.416L174.843 17.534L178.175 22H176.117ZM170.755 22V14.524H172.505V22H170.755ZM171.987 19.004V17.548H174.521V19.004H171.987ZM175.011 18.472L173.373 18.276L176.117 14.524H177.993L175.011 18.472ZM182.635 22.098C181.87 22.098 181.189 21.9347 180.591 21.608C179.994 21.272 179.523 20.8147 179.177 20.236C178.832 19.6573 178.659 18.9993 178.659 18.262C178.659 17.5153 178.832 16.8573 179.177 16.288C179.523 15.7093 179.994 15.2567 180.591 14.93C181.189 14.6033 181.87 14.44 182.635 14.44C183.41 14.44 184.096 14.6033 184.693 14.93C185.3 15.2567 185.771 15.7047 186.107 16.274C186.453 16.8433 186.625 17.506 186.625 18.262C186.625 18.9993 186.453 19.6573 186.107 20.236C185.771 20.8147 185.3 21.272 184.693 21.608C184.096 21.9347 183.41 22.098 182.635 22.098ZM182.635 20.6C183.065 20.6 183.447 20.5067 183.783 20.32C184.119 20.1333 184.381 19.8627 184.567 19.508C184.763 19.1533 184.861 18.738 184.861 18.262C184.861 17.7767 184.763 17.3613 184.567 17.016C184.381 16.6613 184.119 16.3907 183.783 16.204C183.447 16.0173 183.069 15.924 182.649 15.924C182.22 15.924 181.837 16.0173 181.501 16.204C181.175 16.3907 180.913 16.6613 180.717 17.016C180.521 17.3613 180.423 17.7767 180.423 18.262C180.423 18.738 180.521 19.1533 180.717 19.508C180.913 19.8627 181.175 20.1333 181.501 20.32C181.837 20.5067 182.215 20.6 182.635 20.6Z" fill="black"/>
<path d="M12.8933 45.9607C12.2172 49.1575 15.4515 51.7723 18.4357 50.4417L30.5443 45.0425C33.2726 43.826 33.7531 40.1568 31.4302 38.2787L22.0649 30.707C19.7419 28.8289 16.2547 30.0673 15.6366 32.9899L12.8933 45.9607Z" fill="#C9FF50"/>
</svg>
